<?xml version="1.0" encoding="utf-8"?>
<!-- Generator: Adobe Illustrator 22.1.0, SVG Export Plug-In . SVG Version: 6.00 Build 0)  -->
<svg version="1.1" xmlns="http://www.w3.org/2000/svg" xmlns:xlink="http://www.w3.org/1999/xlink" x="0px" y="0px"
	 viewBox="0 0 85 85" style="enable-background:new 0 0 85 85;" xml:space="preserve">
<style type="text/css">
	.st0{fill:#233A82;}
	.st1{fill:none;stroke:#233A82;stroke-width:1.7014;stroke-miterlimit:10;}
	.st2{fill:#FFFFFF;}
</style>
<g id="Calque_1">
</g>
<g id="_x30_1_x5F_ENERGIE_BIS">
	<g>
		<g>
			<rect x="7.3" y="8.9" class="st0" width="70.5" height="68.3"/>
			<rect x="7.3" y="8.9" class="st1" width="70.5" height="68.3"/>
			<path class="st2" d="M19.8,38.5c1.3-4.1,11.8-24.4,10.6-18.7c-1.2,5.7,3.3,16.7,6.4,14.3c3.1-2.5,5.7-21.7,5.7-21.7
				S42,40.6,49,44.7C55.9,48.9,59.6,29,59.6,29s7.2,43-6.1,48.2c-13.3,5.3-21.2,0-21.2,0s-6.6-6.9-10.6-14.8
				C17.7,54.5,18.5,42.5,19.8,38.5"/>
			<path class="st0" d="M22.6,49.7c1.3-6.6,7.9-16.5,7-12.9c-0.9,3.6,6.6,14.5,8.9,12.9c2.3-1.6,4.1-13.8,4.1-13.8s-0.3,18,4.7,20.6
				c5,2.6,7.7-10.1,7.7-10.1s5.2,27.3-4.4,30.7c-9.6,3.3-15.4,0-15.4,0s-4.8-4.4-7.7-9.4C24.6,62.8,22.2,51.9,22.6,49.7"/>
		</g>
		<path class="st2" d="M32.2,64.2c0.7-3.5,4.2-8.7,3.7-6.8c-0.5,1.9,3.5,7.7,4.7,6.9c1.2-0.8,2.2-7.3,2.2-7.3s-0.2,9.5,2.5,10.9
			c2.7,1.4,4.1-5.3,4.1-5.3S52.1,77,47,78.7c-5.1,1.8-8.2,0-8.2,0s-2.5-2.3-4.1-5C33.2,71.1,31.9,65.4,32.2,64.2"/>
	</g>
</g>
</svg>
