<?xml version="1.0" encoding="utf-8"?>
<!-- Generator: Adobe Illustrator 22.1.0, SVG Export Plug-In . SVG Version: 6.00 Build 0)  -->
<svg version="1.1" xmlns="http://www.w3.org/2000/svg" xmlns:xlink="http://www.w3.org/1999/xlink" x="0px" y="0px"
	 viewBox="0 0 85 85" style="enable-background:new 0 0 85 85;" xml:space="preserve">
<style type="text/css">
	.st0{fill:#233A82;}
	.st1{fill:none;stroke:#233A82;stroke-width:1.416;stroke-miterlimit:10;}
	.st2{fill:none;stroke:#FFFFFF;stroke-width:4.248;stroke-miterlimit:10;}
	.st3{fill:none;stroke:#FFFFFF;stroke-width:1.416;stroke-miterlimit:10;}
</style>
<g id="Calque_1">
</g>
<g id="_x30_1_x5F_ENERGIE_BIS">
	<g>
		<path class="st0" d="M42.5,17.7C2.3,17.7,7.2,62.9,7.2,62.9h30.5c0,0-0.1-6-0.1-9c0-3.6,8.8-3.8,8.8-0.1c0,3-0.1,6.2,0,9.2
			c0,0,31.3,0,31.3,0S82.7,17.7,42.5,17.7"/>
		<path class="st1" d="M42.5,17.7C2.3,17.7,7.2,62.9,7.2,62.9h30.5c0,0-0.1-6-0.1-9c0-3.6,8.8-3.8,8.8-0.1c0,3-0.1,6.2,0,9.2
			c0,0,31.3,0,31.3,0S82.7,17.7,42.5,17.7z"/>
		<path class="st0" d="M42.1,48.5v-7.3c0,0-6.6,0.5-8.7-2.1c-2.1-2.7-3-9.7-3-9.7s5.3-0.7,8.5,2c3.2,2.7,3.2,7.6,3.2,7.6V48.5z"/>
		<path class="st2" d="M42.1,48.5v-7.3c0,0-6.6,0.5-8.7-2.1c-2.1-2.7-3-9.7-3-9.7s5.3-0.7,8.5,2c3.2,2.7,3.2,7.6,3.2,7.6V48.5z"/>
		<path class="st0" d="M42.1,44.6v-8.2c0,0,7.4,0.6,9.7-2.4c2.3-3,3.4-10.8,3.4-10.8s-5.9-0.7-9.5,2.2c-3.6,3-3.6,8.4-3.6,8.4V44.6z
			"/>
		<path class="st2" d="M42.1,44.6v-8.2c0,0,7.4,0.6,9.7-2.4c2.3-3,3.4-10.8,3.4-10.8s-5.9-0.7-9.5,2.2c-3.6,3-3.6,8.4-3.6,8.4V44.6z
			"/>
		<line class="st0" x1="42.1" y1="41.2" x2="30.8" y2="29.9"/>
		<line class="st3" x1="42.1" y1="41.2" x2="30.8" y2="29.9"/>
		<line class="st0" x1="42.1" y1="36.5" x2="55.2" y2="23.3"/>
		<line class="st3" x1="42.1" y1="36.5" x2="55.2" y2="23.3"/>
	</g>
</g>
</svg>
