<?xml version="1.0" encoding="utf-8"?>
<!-- Generator: Adobe Illustrator 22.1.0, SVG Export Plug-In . SVG Version: 6.00 Build 0)  -->
<svg version="1.1" xmlns="http://www.w3.org/2000/svg" xmlns:xlink="http://www.w3.org/1999/xlink" x="0px" y="0px"
	 viewBox="0 0 85 85" style="enable-background:new 0 0 85 85;" xml:space="preserve">
<style type="text/css">
	.st0{fill:#233A82;}
	.st1{fill-rule:evenodd;clip-rule:evenodd;fill:#FFFFFF;}
</style>
<g id="Calque_1">
</g>
<g id="_x30_1_x5F_ENERGIE_BIS">
	<g>
		<ellipse transform="matrix(0.9871 -0.1602 0.1602 0.9871 -6.2618 7.3599)" class="st0" cx="42.5" cy="42.5" rx="35.4" ry="35.4"/>
		<g>
			<path class="st1" d="M40.2,12.4c1.5,0,3.1,0,4.6,0c0.5,0.2,1,0.4,1.5,0.5c12.7,1.9,22,10.4,24.9,22.8c0.3,1.3,0.6,2.7,0.9,4
				c0,1.5,0,3.1,0,4.6c-0.2,1.1-0.5,2.2-0.7,3.4c-2.8,13.7-14.6,23.6-28.6,23.8c-13.7,0.3-25.8-9.3-29.1-23c-0.3-1.4-0.6-2.8-1-4.3
				c0-1.5,0-3.1,0-4.6c0.2-0.6,0.4-1.2,0.5-1.8c1.7-12.1,10.5-21.8,22.4-24.6C37.2,13,38.7,12.7,40.2,12.4z M68.9,42.1
				C69,27.8,57.1,15.8,42.6,15.6c-14.3-0.1-26.4,11.8-26.5,26.3C16,56.3,27.9,68.3,42.4,68.4C56.7,68.6,68.8,56.6,68.9,42.1z"/>
			<path class="st1" d="M35.5,27.5c-1.6-0.7-2.8-1.2-4.1-1.8c0.4-3,0.6-3.1,3.2-2.1c2.6,1,5.3,2.1,8.1,3.2c-1.4,3.6-2.7,7-4.1,10.6
				c-1-0.4-1.9-0.8-2.8-1.2c0.7-2,1.4-3.8,2.2-6.2c-4.6,1.9-7.2,4.9-8,9.1c-1.2,6.1,1.1,10.9,6.5,14.3c-0.4,0.9-0.8,1.7-1.1,2.5
				c-5.1-1.7-8.9-7.9-8.9-14C26.7,35.6,29.9,31,35.5,27.5z"/>
			<path class="st1" d="M48.4,30.5c0.4-0.9,0.8-1.7,1.2-2.5c9,3.4,14,19.8,0.1,28.6c1.4,0.6,2.7,1.2,4.1,1.9
				c-0.3,0.9-0.6,1.7-1.1,2.8c-3.5-1.3-6.9-2.6-10.5-4c1.3-3.5,2.7-6.9,4-10.5c1,0.4,1.8,0.7,2.9,1c-0.7,2-1.3,3.8-2,5.7
				c3.1-0.3,6.4-3.5,7.5-7.6C56.5,39.3,54.1,34.3,48.4,30.5z"/>
		</g>
	</g>
</g>
</svg>
