<?xml version="1.0" encoding="utf-8"?>
<!-- Generator: Adobe Illustrator 22.1.0, SVG Export Plug-In . SVG Version: 6.00 Build 0)  -->
<svg version="1.1" xmlns="http://www.w3.org/2000/svg" xmlns:xlink="http://www.w3.org/1999/xlink" x="0px" y="0px"
	 viewBox="0 0 85 85" style="enable-background:new 0 0 85 85;" xml:space="preserve">
<style type="text/css">
	.st0{fill:#233A82;}
	.st1{fill:none;stroke:#233A82;stroke-width:4.9294;stroke-miterlimit:10;}
</style>
<g id="Calque_1">
</g>
<g id="_x30_1_x5F_ENERGIE_BIS">
	<g>
		<path class="st0" d="M57,42.8c0,8.1-6.5,14.6-14.6,14.6c-8.1,0-14.6-6.5-14.6-14.6c0-8.1,6.5-14.6,14.6-14.6
			C50.5,28.2,57,34.7,57,42.8"/>
		<line class="st1" x1="42.4" y1="23.9" x2="42.4" y2="7.2"/>
		<line class="st1" x1="43.4" y1="78.1" x2="43.4" y2="61.4"/>
		<line class="st1" x1="61.2" y1="73.2" x2="52.8" y2="58.7"/>
		<line class="st1" x1="73.8" y1="59.6" x2="59.3" y2="51.3"/>
		<line class="st1" x1="74.3" y1="26.6" x2="58.8" y2="33.1"/>
		<line class="st1" x1="60.6" y1="12.2" x2="51.5" y2="26.3"/>
		<line class="st1" x1="61" y1="42.8" x2="77.7" y2="42.8"/>
		<line class="st1" x1="23.9" y1="72.9" x2="32.2" y2="58.5"/>
		<line class="st1" x1="11.3" y1="59.4" x2="25.7" y2="51.1"/>
		<line class="st1" x1="10.8" y1="26.4" x2="26.2" y2="32.9"/>
		<line class="st1" x1="24.5" y1="11.9" x2="33.5" y2="26"/>
		<line class="st1" x1="24.1" y1="42.6" x2="7.3" y2="42.6"/>
	</g>
</g>
</svg>
