<?xml version="1.0" encoding="utf-8"?>
<!-- Generator: Adobe Illustrator 22.1.0, SVG Export Plug-In . SVG Version: 6.00 Build 0)  -->
<svg version="1.1" xmlns="http://www.w3.org/2000/svg" xmlns:xlink="http://www.w3.org/1999/xlink" x="0px" y="0px"
	 viewBox="0 0 85 85" style="enable-background:new 0 0 85 85;" xml:space="preserve">
<style type="text/css">
	.st0{fill:#37438D;}
	.st1{fill:#FFFFFF;stroke:#FFFFFF;stroke-width:2;stroke-miterlimit:10;}
</style>
<g id="Calque_1">
</g>
<g id="_x30_1_x5F_ENERGIE_BIS">
	<g>
		<path class="st0" d="M78,42.5C78,62.1,62.1,78,42.5,78C22.9,78,7,62.1,7,42.5C7,22.9,22.9,7,42.5,7C62.1,7,78,22.9,78,42.5z"/>
		<path class="st1" d="M59.7,22.6c-6.3,0-11.3,5.1-11.3,11.3c0,0.7,0.6,1.3,1.3,1.3c0.7,0,1.3-0.6,1.3-1.3c0-4.9,4-8.8,8.8-8.8
			c4.9,0,8.8,4,8.8,8.8c0,4.9-4,8.8-8.8,8.8H14.3c-0.7,0-1.3,0.6-1.3,1.3c0,0.7,0.6,1.3,1.3,1.3h45.4c6.3,0,11.3-5.1,11.3-11.3
			C71.1,27.7,66,22.6,59.7,22.6"/>
		<path class="st1" d="M14.3,37.8h21.4c4.9,0,8.8-4,8.8-8.8c0-4.9-4-8.8-8.8-8.8s-8.8,4-8.8,8.8c0,0.7,0.6,1.3,1.3,1.3
			c0.7,0,1.3-0.6,1.3-1.3c0-3.5,2.8-6.3,6.3-6.3s6.3,2.8,6.3,6.3c0,3.5-2.8,6.3-6.3,6.3H14.3c-0.7,0-1.3,0.6-1.3,1.3
			C13.1,37.2,13.6,37.8,14.3,37.8"/>
		<path class="st1" d="M57.2,65.5c-3.5,0-6.3-2.8-6.3-6.3c0-0.7-0.6-1.3-1.3-1.3c-0.7,0-1.3,0.6-1.3,1.3c0,4.9,4,8.8,8.8,8.8
			c4.9,0,8.8-4,8.8-8.8c0-4.9-4-8.8-8.8-8.8H14.3c-0.7,0-1.3,0.6-1.3,1.3c0,0.7,0.6,1.3,1.3,1.3h42.9c3.5,0,6.3,2.8,6.3,6.3
			C63.5,62.7,60.7,65.5,57.2,65.5"/>
	</g>
</g>
</svg>
